<svg xmlns="http://www.w3.org/2000/svg" width="217.088" height="43.682" viewBox="0 0 217.088 43.682"><defs><style>.a{fill-rule:evenodd;}.b{font-size:29px;font-family:OpenSans-Bold, Open Sans;font-weight:700;}.c{font-family:OpenSans, Open Sans;font-weight:400;}</style></defs><g transform="translate(-177.311 -47.089)"><g transform="translate(156.177 27.67)"><g transform="translate(0 44.072) rotate(-48)"><path class="a" d="M29.7,42.487,3.6,42.5A3.652,3.652,0,0,1,0,38.806L.018,3.715a3.661,3.661,0,0,1,3.6-3.7L37.827,0a3.641,3.641,0,0,1,3.6,3.681l-.013,24.946v.924L30.605,42.486ZM1.815,11.1,1.8,38.809a1.817,1.817,0,0,0,1.813,1.844l25.192-.013,0-9.224a3.643,3.643,0,0,1,3.6-3.707l7.205,0,.009-16.624L1.815,11.1Zm0-1.847,0-5.544a1.814,1.814,0,0,1,1.8-1.846L37.83,1.847a1.826,1.826,0,0,1,1.8,1.859l0,5.529-37.809.02ZM30.607,39.716l0-8.3a1.837,1.837,0,0,1,1.8-1.864l6.667,0L30.607,39.716Zm-16.2-15.692v1.847l12.6-.007V24.017l-12.6.007Zm-9-1.842,0,5.541,5.4,0,0-5.541-5.4,0Zm1.8,1.846v1.847h1.8V24.027Zm7.206-7.392v1.847l21.6-.011V16.625l-21.6.011Zm-9-1.842,0,5.541,5.4,0,0-5.541-5.4,0Zm1.8,1.846v1.847h1.8V16.639Zm7.194,14.773v1.847l10.8-.006V31.407l-10.8.006Zm-9-1.842,0,5.541,5.4,0,0-5.541-5.4,0Zm1.8,1.846v1.847H9V31.415Z" transform="translate(31.584 0) rotate(48)"/></g><text class="b" transform="translate(83.222 50.419)"><tspan x="0" y="0">Note </tspan><tspan class="c" y="0">Taker</tspan></text></g></g></svg>