<svg xmlns="http://www.w3.org/2000/svg" width="526" height="385" viewBox="0 0 526 385"><defs><style>.a{fill:#4b4b4b;}.b{fill:#303030;}.c,.f,.l{fill:#fff;}.c{stroke:#303030;stroke-width:3px;}.d{fill:#eee;}.e{fill:#f8f8f8;}.g{fill:#8d93c2;}.h{fill:#6e74ac;}.i{fill:#b5bae2;}.j{fill:#d6d6d6;}.k,.n,.q{fill:none;}.k,.l{stroke:#c5c5c5;}.m{fill:#c5caee;}.n,.o{stroke:#e9e9e9;}.o{fill:#8188c5;}.p{stroke:none;}</style></defs><g transform="translate(-976 -317)"><rect class="a" width="145" height="50" transform="translate(1166 649)"/><rect class="b" width="277" height="11" transform="translate(1099 691)"/><g class="c" transform="translate(976 317)"><rect class="p" width="526" height="340" rx="29"/><rect class="q" x="1.5" y="1.5" width="523" height="337" rx="27.5"/></g><g transform="translate(42 21)"><rect class="d" width="351.411" height="290.223" transform="translate(1067.383 321)"/><rect class="e" width="351.411" height="36.145" transform="translate(1067.383 321)"/><rect class="f" width="68.859" height="54.438" rx="4" transform="translate(1094.4 406.041)"/><rect class="f" width="68.859" height="54.438" rx="4" transform="translate(1170.706 406.041)"/><rect class="f" width="68.859" height="54.438" rx="4" transform="translate(1247.013 406.041)"/><rect class="f" width="68.859" height="54.438" rx="4" transform="translate(1323.319 406.041)"/><rect class="f" width="68.859" height="54.438" rx="4" transform="translate(1170.706 472.307)"/><rect class="f" width="68.859" height="54.438" rx="4" transform="translate(1247.013 472.307)"/><rect class="g" width="98.395" height="290.165" transform="translate(972 321)"/><rect class="h" width="98.395" height="36.145" transform="translate(972 321)"/><rect class="i" width="24.097" height="18.073" rx="6" transform="translate(1094.492 367.186)"/><rect class="j" width="18.073" height="11.044" rx="5.522" transform="translate(1131.641 371.202)"/><rect class="j" width="18.073" height="11.044" rx="5.522" transform="translate(1162.766 371.202)"/><rect class="j" width="18.073" height="11.044" rx="5.522" transform="translate(1193.891 371.202)"/><rect class="j" width="11.044" height="11.044" rx="5.522" transform="translate(1225.016 371.202)"/><g transform="translate(1104.03 415.881)"><line class="k" x2="51.206"/><line class="k" x2="30.121" transform="translate(0 8.032)"/><line class="k" x2="45.181" transform="translate(0 17.069)"/><line class="k" x2="7.028" transform="translate(0 26.105)"/></g><g transform="translate(1179.134 415.881)"><path class="k" d="M-2.2,0h51.4" transform="translate(2.198)"/><path class="k" d="M-1.84,0H48.2" transform="translate(2.2 8.032)"/><line class="k" x2="29.117" transform="translate(0.199 17.069)"/></g><path class="k" d="M2.455,0h52.21" transform="translate(1253.185 415.881)"/><line class="k" x2="8.032" transform="translate(1255.639 423.913)"/><line class="k" x2="52.21" transform="translate(1255.639 432.95)"/><line class="k" x2="45.181" transform="translate(1332.95 415.881)"/><line class="k" x2="34.137" transform="translate(1332.95 423.913)"/><line class="k" x2="14.056" transform="translate(1332.95 432.95)"/><line class="k" x2="41.165" transform="translate(1332.95 441.986)"/><line class="k" x2="51.206" transform="translate(1178.329 482.147)"/><line class="k" x2="51.206" transform="translate(1255.639 482.147)"/><line class="k" x2="46.186" transform="translate(1255.639 492.188)"/><line class="k" x2="10.04" transform="translate(1255.639 502.228)"/><line class="k" x2="28.113" transform="translate(1255.639 512.268)"/><line class="k" x2="48.194" transform="translate(1178.329 492.188)"/><line class="k" x2="32.129" transform="translate(1178.329 502.228)"/><line class="k" x2="25.101" transform="translate(1178.329 512.268)"/><rect class="f" width="68.859" height="54.438" rx="4" transform="translate(1094.4 472.307)"/><line class="k" x2="51.206" transform="translate(1102.022 482.147)"/><line class="k" x2="39.157" transform="translate(1102.022 492.188)"/><line class="k" x2="26.105" transform="translate(1102.022 502.228)"/><line class="k" x2="43.173" transform="translate(1102.022 512.268)"/><line class="k" x2="19.077" transform="translate(1113.067 338.571)"/><g class="l" transform="translate(1094.492 335.056)"><circle class="p" cx="3.514" cy="3.514" r="3.514"/><circle class="q" cx="3.514" cy="3.514" r="3.014"/></g><rect class="g" width="98.395" height="37.149" transform="translate(972 356.141)"/><rect class="m" width="98.395" height="37.149" transform="translate(972 392.286)"/><rect class="g" width="98.395" height="37.149" transform="translate(972 427.427)"/><rect class="g" width="98.395" height="37.149" transform="translate(972 463.573)"/><g transform="translate(983.044 369.194)"><line class="n" x2="48.194" transform="translate(21.587 5.522)"/><line class="n" x2="48.194" transform="translate(21.587 41.667)"/><line class="n" x2="48.194" transform="translate(21.587 77.813)"/><line class="n" x2="48.194" transform="translate(21.587 113.958)"/><g class="o"><circle class="p" cx="5.429" cy="5.429" r="5.429"/><circle class="q" cx="5.429" cy="5.429" r="4.929"/></g><g class="o" transform="translate(0 36.917)"><circle class="p" cx="5.429" cy="5.429" r="5.429"/><circle class="q" cx="5.429" cy="5.429" r="4.929"/></g><g class="o" transform="translate(0 73.834)"><circle class="p" cx="5.429" cy="5.429" r="5.429"/><circle class="q" cx="5.429" cy="5.429" r="4.929"/></g><g class="o" transform="translate(0 110.752)"><circle class="p" cx="5.429" cy="5.429" r="5.429"/><circle class="q" cx="5.429" cy="5.429" r="4.929"/></g></g></g></g></svg>