<svg xmlns="http://www.w3.org/2000/svg" width="174.106" height="33" viewBox="0 0 174.106 33"><g transform="translate(-172.152 -41.405)"><g transform="translate(121.956 14.624)"><g transform="translate(41.007 43.058) rotate(-48)"><path d="M21.913,30.546H2.656A2.662,2.662,0,0,1,0,27.888V2.657A2.662,2.662,0,0,1,2.657,0H27.888a2.654,2.654,0,0,1,2.657,2.648v18.6l-7.968,9.3ZM1.328,7.968V27.891a1.325,1.325,0,0,0,1.338,1.326H21.249V22.585A2.649,2.649,0,0,1,23.9,19.921h5.315V7.968Zm0-1.328V2.654A1.319,1.319,0,0,1,2.654,1.328H27.891a1.331,1.331,0,0,1,1.326,1.337V6.64ZM22.577,28.553V22.589a1.336,1.336,0,0,1,1.324-1.34h4.918l-6.242,7.3ZM10.625,17.265v1.328h9.3V17.265Zm-6.64-1.328v3.984H7.968V15.937Zm1.328,1.328v1.328H6.64V17.265Zm5.312-5.312v1.328H26.561V11.953Zm-6.64-1.328v3.984H7.968V10.625Zm1.328,1.328v1.328H6.64V11.953Zm5.312,10.625v1.328h7.968V22.577Zm-6.64-1.328v3.984H7.968V21.249Zm1.328,1.328v1.328H6.64V22.577Z" transform="translate(17.199 -3.121) rotate(48)" fill="#fff" fill-rule="evenodd"/></g><text transform="translate(96.302 52.782)" fill="#f2f4f6" font-size="24" font-family="OpenSans-Bold, Open Sans" font-weight="700"><tspan x="0" y="0">Note </tspan><tspan y="0" font-family="OpenSans, Open Sans" font-weight="400">Taker</tspan></text></g></g></svg>