<svg xmlns="http://www.w3.org/2000/svg" width="28.962" height="28.962" viewBox="0 0 28.962 28.962"><g transform="translate(-1 -1)"><path d="M29.962,1H1V29.962H29.962ZM28.755,28.755H2.207V2.207H28.755Z" transform="translate(0 0)" fill="#fff"/><path d="M15.99,8.146l-.853-.853-5,5L8.146,10.31l-.853.853L10.133,14Z" transform="translate(-2.496 -2.496)" fill="#fff"/><rect width="10.861" height="1.207" transform="translate(15.481 7.637)" fill="#fff"/><path d="M15.99,20.146l-.853-.853-5,5L8.146,22.31l-.853.853L10.133,26Z" transform="translate(-2.496 -7.256)" fill="#fff"/><rect width="10.861" height="1.207" transform="translate(15.481 14.878)" fill="#fff"/><path d="M15.99,32.146l-.853-.853-5,5L8.146,34.31l-.853.853L10.133,38Z" transform="translate(-2.496 -12.015)" fill="#fff"/><rect width="10.861" height="1.207" transform="translate(15.481 22.118)" fill="#fff"/></g></svg>